<svg viewBox="0 0 257 254" xmlns="http://www.w3.org/2000/svg" role="img" aria-label="SQEPify">
<defs><linearGradient id="g" x1="0" y1="0" x2="1" y2="1"><stop offset="0%" stop-color="#00aeef"/><stop offset="100%" stop-color="#84c341"/></linearGradient></defs>
<g transform="translate(0,254) scale(0.1,-0.1)" stroke="none" fill="url(#g)">
<path d="M670 2091 l-605 -379 -3 -826 -2 -826 345 0 345 0 0 80 0 80 -265 0 -265 0 0 703 1 702 531 332 c404 252 535 330 547 323 9 -6 248 -155 531 -333 l515 -323 3 -702 2 -702 -265 0 -265 0 0 -80 0 -80 339 0 338 0 7 31 c9 45 7 1602 -2 1615 -4 5 -81 56 -172 113 -91 57 -362 227 -602 377 -240 151 -440 274 -445 274 -4 0 -280 -171 -613 -379z"/>
<path d="M1225 1986 c-78 -34 -148 -127 -206 -275 -43 -110 -31 -104 -174 -81 -251 39 -412 -61 -375 -232 15 -71 72 -176 141 -258 l59 -70 -59 -70 c-69 -82 -126 -187 -141 -258 -37 -169 110 -264 358 -232 162 21 150 25 178 -49 35 -93 80 -178 120 -227 38 -46 122 -94 164 -94 43 0 126 48 164 94 40 50 95 155 122 236 10 30 19 56 20 58 1 2 53 -4 115 -14 131 -19 218 -14 290 17 85 37 126 105 114 191 -10 70 -73 191 -145 276 l-60 72 65 80 c145 180 179 325 97 414 -63 68 -203 91 -371 62 -52 -9 -96 -14 -99 -11 -3 2 -21 47 -42 98 -89 226 -212 327 -335 273z m134 -176 c22 -11 53 -36 70 -57 32 -38 97 -160 90 -167 -16 -15 -201 -79 -229 -79 -27 0 -213 64 -228 78 -6 6 57 125 85 162 34 44 100 83 141 83 18 0 50 -9 71 -20z m-401 -285 c2 -1 -4 -40 -12 -85 -9 -45 -16 -97 -16 -115 0 -30 -10 -41 -101 -115 l-101 -82 -24 28 c-80 99 -112 241 -68 301 45 60 124 85 244 77 41 -3 76 -7 78 -9z m921 -18 c63 -31 85 -65 85 -130 0 -29 -6 -68 -14 -87 -15 -37 -89 -160 -96 -160 -3 0 -50 36 -104 81 -90 73 -100 84 -100 114 0 18 -7 69 -15 112 -8 43 -15 81 -15 85 0 11 68 16 145 12 45 -3 86 -12 114 -27z m-763 -18 c38 -11 73 -24 77 -28 6 -6 -143 -102 -187 -120 -5 -2 -6 13 -2 35 18 94 28 134 36 134 4 0 39 -9 76 -21z m448 -48 c22 -97 20 -120 -9 -92 -6 5 -50 32 -98 59 l-89 51 79 25 c43 14 83 25 90 26 6 0 19 -31 27 -69z m-148 -84 c60 -34 126 -74 146 -87 l38 -25 0 -175 0 -175 -64 -42 c-117 -77 -235 -135 -259 -129 -31 8 -246 131 -274 158 -22 21 -23 26 -23 190 l0 168 48 35 c61 45 242 145 263 145 8 0 64 -28 125 -63z m-501 -287 c0 -66 -2 -120 -5 -120 -3 0 -34 27 -70 60 l-65 60 65 60 c36 33 67 60 70 60 3 0 5 -54 5 -120z m826 55 l62 -59 -64 -58 c-35 -32 -66 -58 -69 -58 -3 0 -5 54 -5 120 0 66 3 119 7 118 4 -2 35 -30 69 -63z m-910 -195 c90 -73 99 -84 99 -114 0 -19 7 -71 16 -116 8 -45 12 -85 9 -88 -3 -4 -50 -7 -103 -7 -84 0 -104 3 -146 25 -87 44 -112 107 -81 202 15 47 90 178 102 178 2 0 49 -36 104 -80z m1057 32 c107 -165 101 -282 -17 -336 -36 -16 -66 -21 -143 -21 -53 0 -99 3 -103 6 -3 4 1 44 9 89 9 45 16 98 16 116 0 20 7 40 18 48 9 8 53 44 97 80 44 36 83 66 86 66 4 0 21 -21 37 -48z m-319 -239 c-10 -47 -21 -88 -24 -91 -2 -2 -43 8 -91 23 l-87 27 109 64 c60 35 110 64 111 64 0 0 -7 -39 -18 -87z m-459 18 l102 -59 -81 -26 c-45 -14 -86 -26 -91 -26 -8 0 -18 38 -35 133 -4 20 -5 37 -3 37 3 0 51 -27 108 -59z m325 -153 c44 -16 82 -31 84 -34 7 -7 -58 -129 -90 -167 -37 -45 -96 -77 -140 -77 -42 0 -109 40 -143 85 -36 47 -91 158 -80 162 5 2 56 23 114 46 101 42 106 43 140 29 19 -8 71 -28 115 -44z"/>
<path d="M1234 1240 c-16 -5 -46 -26 -66 -45 -152 -153 42 -388 223 -270 42 27 79 95 79 145 0 50 -37 118 -79 146 -42 27 -111 38 -157 24z"/>
</g></svg>